<?xml version="1.0" encoding="utf-8"?>
<!-- Generator: Adobe Illustrator 23.0.5, SVG Export Plug-In . SVG Version: 6.00 Build 0)  -->
<svg version="1.1" id="Layer_1" xmlns:serif="http://www.serif.com/"
	 xmlns="http://www.w3.org/2000/svg" xmlns:xlink="http://www.w3.org/1999/xlink" x="0px" y="0px" viewBox="0 0 1200 1200"
	 style="enable-background:new 0 0 1200 1200;" xml:space="preserve">
<style type="text/css">
	.st0{fill-rule:evenodd;clip-rule:evenodd;fill:#fa9548;}
	.st1{fill-rule:evenodd;clip-rule:evenodd;}
</style>
<path class="st0" d="M600,21.3C280.9,21.3,21.3,280.8,21.3,600c0,319.1,259.5,578.7,578.7,578.7c319.2,0,578.7-259.5,578.7-578.7
	C1178.7,280.8,919.2,21.3,600,21.3L600,21.3z"/>
<g>
	<path class="st1" d="M256.3,871.6C351.7,768.5,471.7,712.2,600,712.2s248.3,56.3,343.7,159.4c-22.6,29.2-48.2,56.1-76.3,80.1
		C791.4,868.1,697.8,822.9,600,822.9s-191.4,45.2-267.4,128.8C304.6,927.7,279,900.8,256.3,871.6L256.3,871.6z"/>
	<path d="M600,696.9c123.2,0,224.3-101.1,224.3-224.3S723.2,248.3,600,248.3c-123.2,0-224.3,101.1-224.3,224.3
		S476.8,696.9,600,696.9L600,696.9z M600,359.1c62.3,0,113.6,51.2,113.6,113.5S662.3,586.1,600,586.1
		c-62.3,0-113.5-51.2-113.5-113.5S537.7,359.1,600,359.1z"/>
</g>
</svg>
