<?xml version="1.0" encoding="utf-8"?>
<!-- Generator: Adobe Illustrator 23.0.5, SVG Export Plug-In . SVG Version: 6.00 Build 0)  -->
<svg version="1.1" id="Layer_1" xmlns="http://www.w3.org/2000/svg" xmlns:xlink="http://www.w3.org/1999/xlink" x="0px" y="0px"
	 viewBox="0 0 1200 1200" style="enable-background:new 0 0 1200 1200;" xml:space="preserve">
<style type="text/css">
	.st0{display:none;fill:#FDFDFD;}
	.st1{fill:#1AE21A;}
	.st2{fill:#EF8137;}
	.st3{fill:#EF7820;}
	.st4{fill:#5EF75E;}
	.st5{fill:#F4995B;}
	.st6{fill:none;}
	.st7{font-family:'Lexend-Regular';}
	.st8{font-size:97px;}
</style>
<g>
	<g>
	</g>
	<g>
		<g>
			<path class="st0" d="M198.47,749.7c0-107.36,0-214.66,0-322.02c107.36,0,214.66,0,322.02,0c0,107.36,0,214.66,0,322.02
				C413.19,749.7,305.83,749.7,198.47,749.7z"/>
			<path class="st1" d="M287.84,499.07c3.14-0.19,6.29,0.06,9.37,0.63c2.14,0.38,4.28,0.82,6.42,1.38c2.39,0.69,4.78,1.45,7.11,2.33
				c6.67,2.58,12.77,6.1,18.43,10.44c4.53,3.46,8.68,7.36,12.45,11.57c4.28,4.84,8.11,10.13,11.38,15.72
				c3.02,5.09,5.66,10.44,7.92,15.91c0.44,1.01,0.38,1.13-0.63,1.64c-3.84,1.82-7.67,3.58-11.64,5.16
				c-3.4,1.32-6.86,2.58-10.31,3.65c-2.26,0.69-4.53,1.26-6.79,1.82c-2.01,0.5-4.09,0.94-6.1,1.32c-1.64,0.31-3.33,0.57-5.03,0.82
				c-4.28,0.63-8.55,0.5-12.83,0.75c-2.58,0.13-5.16-0.13-7.74-0.31c-1.64-0.13-3.27-0.57-4.84-0.82c-1.76-0.31-3.46-0.69-5.22-1.19
				c-4.21-1.13-8.18-2.77-12.01-4.78c-6.04-3.21-11.26-7.36-15.72-12.58c-3.9-4.59-6.79-9.75-8.68-15.41
				c-1.32-3.96-1.95-8.05-1.7-12.26c0.38-5.66,2.64-10.5,6.54-14.59c3.71-3.9,8.24-6.6,13.33-8.49c2.33-0.88,4.78-1.51,7.17-2.01
				c2.64-0.5,5.41-0.75,8.11-0.63C287.15,499.07,287.53,499.07,287.84,499.07z"/>
			<path class="st2" d="M390.04,562.03c-0.31,1.51-1.07,2.83-1.51,4.28c-0.57,1.7-1.07,3.46-1.45,5.28
				c-1.07,5.41-1.2,10.88-0.88,16.35c0.19,3.71,0.31,7.48,0.82,11.2c0.25,1.82,0.5,3.71,0.75,5.53c0.31,2.14,0.82,4.28,1.32,6.35
				c0.57,2.26,1.19,4.53,1.82,6.79c0.63,2.33,1.38,4.59,2.2,6.86c1.38,3.77,2.83,7.48,4.53,11.13c3.27,7.04,7.11,13.77,11.7,20.13
				c3.46,4.78,7.3,9.25,11.57,13.33c2.89,2.7,5.79,5.41,9.25,7.48c2.01,1.19,4.21,2.01,6.42,2.96c0.25,0.13,0.69,0,0.69,0.44
				c0,0.31-0.31,0.44-0.5,0.57c-2.26,1.64-4.72,3.02-7.23,4.34c-3.4,1.82-7.04,3.14-10.69,4.4c-2.39,0.82-4.78,1.38-7.17,1.95
				c-0.63,0.13-1.32,0.06-2.01,0.13c-2.2,0.13-4.4,0.44-6.67,0.25c-2.77-0.25-5.47-0.57-8.11-1.26c-3.52-0.94-6.86-2.14-10.06-3.77
				c-2.77-1.38-5.16-3.4-7.36-5.53c-5.28-5.03-9.94-10.57-13.84-16.79c-3.08-4.91-5.6-10-7.67-15.41
				c-1.89-4.78-3.33-9.62-4.47-14.65c-0.63-2.89-1.19-5.79-1.57-8.74c-0.69-5.47-0.57-10.94-0.5-16.42c0-1.7-0.06-3.4,0.13-5.09
				c0.38-2.89,1.19-5.66,2.2-8.36c1.76-4.72,4.09-9.18,6.92-13.4c2.45-3.65,5.6-6.73,9.12-9.37c4.4-3.27,9.06-6.04,14.03-8.24
				c2.45-1.07,4.91-2.01,7.48-2.83C389.48,561.84,389.67,561.84,390.04,562.03z"/>
			<path class="st3" d="M406.77,585.48c-0.25-3.4,0.13-6.79,0.57-10.13c0.19-1.51,0.82-2.96,1.57-4.34
				c2.08-3.96,5.09-6.86,9.31-8.36c3.58-1.26,7.11-1.07,10.5,0.44c5.53,2.45,10.69,5.53,15.28,9.5
				c6.23,5.35,11.32,11.57,15.09,18.93c2.01,3.9,3.77,7.99,5.16,12.14c0.82,2.52,1.51,5.09,2.01,7.74c0.57,3.08,0.88,6.23,1.13,9.37
				c0.25,3.14,0.31,6.23,0.13,9.37c-0.19,3.08-0.38,6.1-0.94,9.12c-0.94,4.97-2.08,9.81-4.28,14.34c-1.82,3.77-4.91,6.16-8.81,7.48
				c-2.45,0.82-5.03,0.94-7.55,0.57c-2.64-0.44-5.16-1.51-7.17-3.33c-4.03-3.65-7.86-7.48-11.2-11.82
				c-3.4-4.47-6.35-9.25-8.93-14.21c-2.33-4.59-4.4-9.31-6.1-14.21c-0.88-2.58-1.76-5.22-2.45-7.86c-0.75-2.7-1.32-5.41-1.82-8.18
				c-0.31-1.64-0.31-3.27-0.82-4.84c-0.06-0.19-0.13-0.31-0.13-0.5c-0.06-3.4-0.82-6.73-0.57-10.13
				C406.77,586.11,406.77,585.8,406.77,585.48z"/>
			<path class="st4" d="M370.48,521.33c-0.13-3.33,0.06-6.42,0.63-9.43c1.76-9.31,5.6-17.55,12.96-23.9
				c2.64-2.26,5.6-4.03,8.87-5.03c1.32-0.44,2.64-0.82,4.09-0.75c1.82,0.13,3.65,0,5.47,0.38c2.52,0.5,4.28,1.95,5.79,3.84
				c2.14,2.77,3.21,5.91,3.84,9.31c0.5,2.64,0.5,5.22,0.44,7.86c0,2.77-0.57,5.53-1.26,8.18c-1.38,5.28-3.84,10.06-7.04,14.47
				c-3.27,4.53-7.17,8.43-11.51,11.89c-4.78,3.77-10,6.86-15.41,9.56c-1.01,0.5-1.32,0.44-1.7-0.69c-0.75-2.14-1.57-4.28-2.2-6.48
				s-1.26-4.4-1.7-6.6C370.92,529.7,370.29,525.42,370.48,521.33z"/>
			<path class="st5" d="M330.8,618.76c0,0.75,0,1.32,0,1.89c0,1.89,0.13,3.71,0.44,5.6c0.19,1.07,0.06,2.2,0.25,3.33
				c0.5,2.77,0.82,5.6,1.32,8.43c0.63,3.46,1.45,6.86,2.33,10.25c1.13,4.09,2.52,8.05,4.09,12.01c1.51,3.77,3.21,7.42,5.09,11.01
				c2.7,5.16,5.79,10,9.18,14.72c2.08,2.83,4.28,5.47,6.6,8.05c0.19,0.19,0.31,0.44,0.5,0.63c0.13,0.13,0.25,0.25,0.13,0.5
				c-0.06,0.19-0.31,0.19-0.44,0.19c-0.5-0.06-1.01-0.06-1.45-0.19c-2.33-0.5-4.72-1.01-7.04-1.51c-1.76-0.44-3.52-0.94-5.28-1.38
				c-1.7-0.44-3.33-0.82-5.03-1.26c-1.51-0.38-3.02-0.82-4.47-1.26c-2.64-0.82-5.35-1.64-7.99-2.52c-2.58-0.88-5.09-1.76-7.67-2.7
				c-3.65-1.32-7.23-2.7-10.82-4.21c-2.77-1.19-3.9-3.21-4.03-6.16c-0.06-2.14,0.57-4.03,1.26-5.97c2.08-5.72,4.34-11.38,6.67-17.04
				c2.77-6.67,5.91-13.14,9.18-19.56c2.01-3.96,4.03-7.92,6.29-11.76C330.17,619.38,330.23,619.07,330.8,618.76z"/>
		</g>
	</g>
</g>
<rect x="480.2" y="586.18" class="st6" width="516.24" height="109.18"/>
<text transform="matrix(1 0 0 1 480.1999 657.9617)" class="st7 st8">Help Hub</text>
</svg>
